<svg xmlns="http://www.w3.org/2000/svg" xmlns:xlink="http://www.w3.org/1999/xlink" width="73" height="80" viewBox="0 0 73 80">
  <defs>
    <clipPath id="clip-path">
      <rect id="Rectangle_7427" data-name="Rectangle 7427" width="68" height="75.665" fill="none"/>
    </clipPath>
  </defs>
  <g id="Group_16778" data-name="Group 16778" transform="translate(-4484 -1184)">
    <rect id="Rectangle_7429" data-name="Rectangle 7429" width="73" height="80" transform="translate(4484 1184)" fill="#fff"/>
    <g id="Group_16776" data-name="Group 16776" transform="translate(4486.592 1186.511)">
      <g id="Group_16773" data-name="Group 16773" clip-path="url(#clip-path)">
        <path id="Path_7656" data-name="Path 7656" d="M51.537,321.262h-2v7.3h2a3.656,3.656,0,1,0,0-7.3m-.626,1.325h.573a2.331,2.331,0,1,1,0,4.654H50.91Z" transform="translate(-42.229 -273.895)" fill="#8f0f14"/>
        <rect id="Rectangle_7423" data-name="Rectangle 7423" width="1.396" height="7.303" transform="translate(14.66 47.367)" fill="#8f0f14"/>
        <path id="Path_7657" data-name="Path 7657" d="M117.76,322.587H119.8v5.978h1.378v-5.978H123.2v-1.325H117.76Z" transform="translate(-100.397 -273.895)" fill="#8f0f14"/>
        <path id="Path_7658" data-name="Path 7658" d="M162.538,321.262l-1.683,2.918-1.7-2.918H157.58l2.578,4.4v2.9h1.378v-2.9l2.542-4.4Z" transform="translate(-134.346 -273.895)" fill="#8f0f14"/>
        <path id="Path_7659" data-name="Path 7659" d="M275.283,324.7a1.878,1.878,0,0,0,.519-1.378,2.022,2.022,0,0,0-2.255-2.059h-2.577v7.3h2.721a2.17,2.17,0,0,0,2.434-2.184,1.9,1.9,0,0,0-.841-1.682m-1.79-2.13c.627,0,.931.251.931.787s-.25.788-.823.788h-1.253v-1.575Zm-1.128,2.864h1.253c.734,0,1.128.3,1.128.913s-.358.913-1.11.913h-1.271Z" transform="translate(-231.017 -273.895)" fill="#8f0f14"/>
        <rect id="Rectangle_7424" data-name="Rectangle 7424" width="1.396" height="7.303" transform="translate(46.61 47.367)" fill="#8f0f14"/>
        <path id="Path_7660" data-name="Path 7660" d="M343.6,323.589a2.314,2.314,0,0,0-2.56-2.327h-2.327v7.3h1.378V325.9h.877l1.647,2.667h1.593l-1.844-2.953a2.127,2.127,0,0,0,1.235-2.023m-3.526-1h.913c.806,0,1.2.34,1.2,1.02,0,.43-.125.984-1.2.984h-.913Z" transform="translate(-288.772 -273.895)" fill="#8f0f14"/>
        <path id="Path_7661" data-name="Path 7661" d="M384.3,321.262h-1.4v7.3h4.421v-1.307H384.3Z" transform="translate(-326.447 -273.895)" fill="#8f0f14"/>
        <path id="Path_7662" data-name="Path 7662" d="M0,326.994H1.36l.609-1.5H4.26l.609,1.5H6.247l-3.115-7.554Zm2.47-2.739.644-1.593.644,1.593Z" transform="translate(0 -272.343)" fill="#8f0f14"/>
        <path id="Path_7663" data-name="Path 7663" d="M198.249,327.116h1.36l.591-1.5h2.291l.609,1.5h1.378l-3.115-7.554Zm2.452-2.721.644-1.593.644,1.593Z" transform="translate(-169.019 -272.446)" fill="#8f0f14"/>
        <path id="Path_7664" data-name="Path 7664" d="M418.836,326.994h1.36l.609-1.5H423.1l.609,1.5h1.378l-3.115-7.554Zm2.452-2.739.644-1.593.645,1.593Z" transform="translate(-357.083 -272.343)" fill="#8f0f14"/>
        <path id="Path_7665" data-name="Path 7665" d="M111.095,474.764v-6.536h4.137v.728h-3.315v2.409h2.876v.71h-2.876v2.689Z" transform="translate(-94.715 -399.192)" fill="#8f0f14"/>
        <path id="Path_7666" data-name="Path 7666" d="M137.568,474.387l2.241-6.6h.906l2.25,6.6h-.887l-.56-1.69h-2.549l-.56,1.69Zm1.569-2.362h2.222l-1.111-3.464Z" transform="translate(-117.285 -398.815)" fill="#8f0f14"/>
        <path id="Path_7667" data-name="Path 7667" d="M180.576,467.884l-.168.635q-.168-.056-.383-.107t-.448-.089q-.234-.037-.467-.056t-.448-.019a2.063,2.063,0,0,0-1.135.276.869.869,0,0,0-.425.77.848.848,0,0,0,.093.4,1.086,1.086,0,0,0,.3.341,2.427,2.427,0,0,0,.56.308q.35.145.854.313a5.786,5.786,0,0,1,.915.359,2.867,2.867,0,0,1,.616.411,1.3,1.3,0,0,1,.35.495,1.7,1.7,0,0,1,.107.621,1.54,1.54,0,0,1-.3.962,1.87,1.87,0,0,1-.864.6,3.938,3.938,0,0,1-1.368.21q-.271,0-.574-.028t-.616-.079q-.313-.051-.6-.121a3.922,3.922,0,0,1-.5-.154l.187-.635q.215.075.486.145t.56.121q.289.052.574.075t.528.023a2.941,2.941,0,0,0,.91-.121,1.178,1.178,0,0,0,.56-.355.869.869,0,0,0,.192-.57.8.8,0,0,0-.112-.42,1.1,1.1,0,0,0-.345-.341,3.693,3.693,0,0,0-.6-.308q-.369-.154-.883-.322a5.567,5.567,0,0,1-.85-.359,2.47,2.47,0,0,1-.579-.415,1.4,1.4,0,0,1-.327-.495,1.727,1.727,0,0,1-.1-.616,1.562,1.562,0,0,1,.159-.71,1.61,1.61,0,0,1,.458-.551,2.141,2.141,0,0,1,.752-.359,3.855,3.855,0,0,1,1.032-.126,5.909,5.909,0,0,1,.686.042q.359.042.677.107a4.844,4.844,0,0,1,.542.14" transform="translate(-150.114 -398.653)" fill="#8f0f14"/>
        <path id="Path_7668" data-name="Path 7668" d="M215.278,474.764v-6.536h.812v3.3h3.418v-3.3h.8v6.536h-.8v-2.512h-3.418v2.512Z" transform="translate(-183.538 -399.192)" fill="#8f0f14"/>
        <rect id="Rectangle_7425" data-name="Rectangle 7425" width="0.812" height="6.536" transform="translate(38.09 69.035)" fill="#8f0f14"/>
        <path id="Path_7669" data-name="Path 7669" d="M273.83,474.318a3.764,3.764,0,0,1-.9-.1,2.466,2.466,0,0,1-.775-.336,2.173,2.173,0,0,1-.612-.616,2.975,2.975,0,0,1-.4-.952,5.733,5.733,0,0,1-.14-1.354,5.8,5.8,0,0,1,.14-1.359,3.111,3.111,0,0,1,.392-.962,2.076,2.076,0,0,1,.6-.616,2.386,2.386,0,0,1,.775-.327,4.039,4.039,0,0,1,.91-.1,3.932,3.932,0,0,1,.915.1,2.532,2.532,0,0,1,.78.327,2.021,2.021,0,0,1,.6.612,3.111,3.111,0,0,1,.392.952,5.67,5.67,0,0,1,.14,1.349,6.092,6.092,0,0,1-.135,1.373,3.016,3.016,0,0,1-.392.971,2.047,2.047,0,0,1-.607.616,2.44,2.44,0,0,1-.78.322,4.108,4.108,0,0,1-.915.1m0-.654a2.585,2.585,0,0,0,.621-.075,1.584,1.584,0,0,0,.551-.252,1.622,1.622,0,0,0,.434-.486,2.645,2.645,0,0,0,.294-.78,5.908,5.908,0,0,0,0-2.241,2.581,2.581,0,0,0-.294-.775,1.668,1.668,0,0,0-.439-.486,1.6,1.6,0,0,0-.551-.257,2.537,2.537,0,0,0-.616-.075,2.478,2.478,0,0,0-.612.075,1.653,1.653,0,0,0-.546.252,1.627,1.627,0,0,0-.443.49,2.526,2.526,0,0,0-.294.78,5.334,5.334,0,0,0-.1,1.13,4.885,4.885,0,0,0,.107,1.1,2.616,2.616,0,0,0,.3.77,1.707,1.707,0,0,0,.439.495,1.542,1.542,0,0,0,.542.257,2.47,2.47,0,0,0,.612.075" transform="translate(-231.052 -398.653)" fill="#8f0f14"/>
        <path id="Path_7670" data-name="Path 7670" d="M316.545,474.6v-6.564h.766l3.446,5.295v-5.267h.738v6.546h-.775l-3.436-5.248V474.6Z" transform="translate(-269.874 -399.03)" fill="#8f0f14"/>
        <path id="Path_7671" data-name="Path 7671" d="M349.395,26.657l-9.174,4.228L330.149,18.332,341.4,0h8Z" transform="translate(-281.472 0)" fill="#8f0f14"/>
        <path id="Path_7672" data-name="Path 7672" d="M407.634,196.451V180.8l-9.174,4.228Z" transform="translate(-339.711 -154.14)" fill="#db5013"/>
        <path id="Path_7673" data-name="Path 7673" d="M245.009,18.332,230.285,0h25.971Z" transform="translate(-196.332 0)" fill="#db5013"/>
        <path id="Path_7674" data-name="Path 7674" d="M240.961,25.021l4.032-6.578L230.285.111V22.066h.1a20.053,20.053,0,0,1,10.578,2.955" transform="translate(-196.332 -0.095)" fill="#ffbe43"/>
        <path id="Path_7675" data-name="Path 7675" d="M230.384,148.911h-.1v20.356l10.676-17.385a20.259,20.259,0,0,0-10.578-2.971" transform="translate(-196.333 -126.956)" fill="#8f0f14"/>
        <path id="Path_7676" data-name="Path 7676" d="M310.593,139.758l6.219-2.873L306.74,124.332l-4.048,6.595a20.5,20.5,0,0,1,7.9,8.831" transform="translate(-258.063 -106.001)" fill="#db5013"/>
        <path id="Path_7677" data-name="Path 7677" d="M240.961,169.061l-10.676,17.4,18.576-8.57a20.5,20.5,0,0,0-7.9-8.831" transform="translate(-196.332 -144.135)" fill="#b90014"/>
        <path id="Path_7678" data-name="Path 7678" d="M362.5,209.471l-6.219,2.873a20.267,20.267,0,0,1,1.894,8.57h13.5Z" transform="translate(-303.748 -178.587)" fill="#ffbe43"/>
        <path id="Path_7679" data-name="Path 7679" d="M230.285,237.416h20.454a20.37,20.37,0,0,0-1.877-8.57Z" transform="translate(-196.332 -195.105)" fill="#8f0f14"/>
        <path id="Path_7680" data-name="Path 7680" d="M0,26.657l9.174,4.228L19.246,18.332,8,0H0Z" transform="translate(0 0)" fill="#8f0f14"/>
        <path id="Path_7681" data-name="Path 7681" d="M0,196.451V180.8l9.174,4.228Z" transform="translate(0 -154.14)" fill="#db5013"/>
        <path id="Path_7682" data-name="Path 7682" d="M65.5,18.332,80.2,0H54.25Z" transform="translate(-46.251 0)" fill="#db5013"/>
        <path id="Path_7683" data-name="Path 7683" d="M134.564,25.021l-4.032-6.578L145.24.111V22.066h-.1a20.138,20.138,0,0,0-10.578,2.955" transform="translate(-111.286 -0.095)" fill="#b90014"/>
        <path id="Path_7684" data-name="Path 7684" d="M168.55,148.911h.1v20.356l-10.659-17.385a20.2,20.2,0,0,1,10.561-2.971" transform="translate(-134.695 -126.956)" fill="#db5013"/>
        <path id="Path_7685" data-name="Path 7685" d="M68.44,139.758l-6.219-2.873,10.072-12.553,4.032,6.578a20.491,20.491,0,0,0-7.884,8.847" transform="translate(-53.047 -106.001)" fill="#db5013"/>
        <path id="Path_7686" data-name="Path 7686" d="M112.287,169.061l10.676,17.4-18.56-8.57a20.359,20.359,0,0,1,7.884-8.831" transform="translate(-89.01 -144.135)" fill="#b90014"/>
        <path id="Path_7687" data-name="Path 7687" d="M9.174,209.471l6.219,2.873a20.268,20.268,0,0,0-1.894,8.57H0Z" transform="translate(0 -178.587)" fill="#ffbe43"/>
        <path id="Path_7688" data-name="Path 7688" d="M112.014,237.416H91.56a20.135,20.135,0,0,1,1.894-8.57Z" transform="translate(-78.06 -195.105)" fill="#8f0f14"/>
        <rect id="Rectangle_7426" data-name="Rectangle 7426" width="22.406" height="0.813" transform="translate(22.797 61.386)" fill="#8f0f14"/>
      </g>
    </g>
  </g>
</svg>
