<svg id="Group_16779" data-name="Group 16779" xmlns="http://www.w3.org/2000/svg" xmlns:xlink="http://www.w3.org/1999/xlink" width="250" height="29.395" viewBox="0 0 250 29.395">
  <defs>
    <clipPath id="clip-path">
      <rect id="Rectangle_7430" data-name="Rectangle 7430" width="250" height="29.395" fill="none"/>
    </clipPath>
  </defs>
  <g id="Group_16779-2" data-name="Group 16779" clip-path="url(#clip-path)">
    <path id="Path_7689" data-name="Path 7689" d="M811.37.276A14.841,14.841,0,0,0,802.175,3.4,14.844,14.844,0,0,0,792.981.276a14.431,14.431,0,0,0-14.66,14.66A14.432,14.432,0,0,0,792.981,29.6a14.841,14.841,0,0,0,9.194-3.122A14.836,14.836,0,0,0,811.37,29.6,14.432,14.432,0,0,0,826.03,14.936,14.431,14.431,0,0,0,811.37.276m0,25.607a10.527,10.527,0,0,1-6.527-2.177,13.7,13.7,0,0,0,.794-1.212A15.237,15.237,0,0,0,805.79,7.65h0l-.059-.112a7.572,7.572,0,0,0-2.75,3.42l.045.127a11.846,11.846,0,0,1-.33,8.542,10.679,10.679,0,0,1-20.4-4.69A10.728,10.728,0,0,1,799.5,6.169a13.889,13.889,0,0,0-.918,1.431,15.284,15.284,0,0,0-.229,14.247q.053.1.108.2l.01.038.007-.005h0l0,0a7.007,7.007,0,0,0,2.722-3.6l.012-.015a11.681,11.681,0,0,1-.533-3.529,10.687,10.687,0,1,1,21.368,0A10.58,10.58,0,0,1,811.37,25.883" transform="translate(-626.838 -0.222)" fill="#00b3b5"/>
    <path id="Path_7690" data-name="Path 7690" d="M148.609,4.143A12.91,12.91,0,0,0,138.766,0a13.149,13.149,0,0,0-9.923,4.09,15.1,15.1,0,0,0-3.771,10.524c0,8.544,5.759,14.746,13.694,14.746a13.09,13.09,0,0,0,9.843-4.314v3.59h3.85V.362h-3.85Zm.132,10.274c0,7.712-5.069,11.224-9.778,11.224-6.506,0-9.91-5.647-9.91-11.224,0-7.024,4.952-10.7,9.844-10.7,3.957,0,9.844,2.849,9.844,10.7" transform="translate(-100.73 0)" fill="#00b3b5"/>
    <path id="Path_7691" data-name="Path 7691" d="M556.213,4.143A12.909,12.909,0,0,0,546.37,0a13.149,13.149,0,0,0-9.923,4.09,15.1,15.1,0,0,0-3.771,10.524c0,8.544,5.759,14.746,13.694,14.746a13.091,13.091,0,0,0,9.844-4.314v3.59h3.85V.362h-3.85Zm.131,10.274c0,7.712-5.068,11.224-9.778,11.224-6.505,0-9.909-5.647-9.909-11.224,0-7.024,4.952-10.7,9.843-10.7,3.957,0,9.844,2.849,9.844,10.7" transform="translate(-429.003 0)" fill="#00b3b5"/>
    <path id="Path_7692" data-name="Path 7692" d="M442.3,1.841h-23.76V5.69h9.815V30.119h4.113V5.69H442.3Z" transform="translate(-337.079 -1.482)" fill="#00b3b5"/>
    <path id="Path_7693" data-name="Path 7693" d="M298.076,1.841a12.909,12.909,0,0,0-9.844,4.143V1.841h-3.85V30.119h3.856L288.1,16.258c0-7.849,5.887-10.7,9.844-10.7,6.462,0,9.843,5.382,9.843,10.7V30.119h3.982V16.455A15.1,15.1,0,0,0,308,5.931a13.148,13.148,0,0,0-9.922-4.09" transform="translate(-229.034 -1.483)" fill="#00b3b5"/>
    <path id="Path_7694" data-name="Path 7694" d="M1047.9,1.841a12.909,12.909,0,0,0-9.844,4.143V1.841h-3.85V30.119h3.856l-.137-13.861c0-7.849,5.887-10.7,9.844-10.7,6.462,0,9.843,5.382,9.843,10.7V30.119h3.982V16.455a15.1,15.1,0,0,0-3.771-10.524,13.148,13.148,0,0,0-9.922-4.09" transform="translate(-832.922 -1.483)" fill="#00b3b5"/>
    <path id="Path_7695" data-name="Path 7695" d="M1202.9,15.667c-1.6-2.027-3.808-2.863-6.15-3.749-.333-.126-.671-.254-1.006-.385-2.778-1.111-4.35-1.843-4.35-3.97a3.715,3.715,0,0,1,3.926-3.664,4.307,4.307,0,0,1,4.109,2.659l.264.6L1203,5.406l-.223-.517a7.84,7.84,0,0,0-7.595-4.707,7.4,7.4,0,0,0-7.777,7.513,6.215,6.215,0,0,0,1.305,3.851c1.324,1.765,3.54,2.684,6.111,3.75,4.2,1.695,5.6,2.687,5.6,5.22a5.165,5.165,0,0,1-5.373,5.307,6.269,6.269,0,0,1-6.116-4.934l-.16-.618-3.727,1.147.14.561a9.841,9.841,0,0,0,9.862,7.563c4.656,0,9.354-2.831,9.354-9.157a7.1,7.1,0,0,0-1.511-4.717" transform="translate(-954.407 -0.146)" fill="#00b3b5"/>
    <path id="Path_7696" data-name="Path 7696" d="M696.1,1.841h-4.113V30.087h18.434v-3.85H696.1Z" transform="translate(-557.307 -1.482)" fill="#00b3b5"/>
    <path id="Path_7697" data-name="Path 7697" d="M9.257,1.811H.724L.077,1.805,0,30.09H4.108l.074-6.146H9.233C17.6,23.944,22.6,19.65,22.6,12.435l0-.063C22.186,5.66,17.325,1.811,9.257,1.811m9.1,10.692v.021c0,2.827-1.168,7.57-8.989,7.57H4.189V5.661h5.2c3.172,0,8.551.89,8.964,6.842" transform="translate(0 -1.454)" fill="#00b3b5"/>
  </g>
</svg>
